<svg width="20" height="20" viewBox="0 0 20 20" fill="none" xmlns="http://www.w3.org/2000/svg">
<path fill-rule="evenodd" clip-rule="evenodd" d="M12.75 0C12.9489 0 13.1397 0.0790175 13.2803 0.21967C13.421 0.360322 13.5 0.551088 13.5 0.75V3.676C14.0725 3.78938 14.598 4.07117 15.0092 4.48524C15.4204 4.89931 15.6986 5.42678 15.808 6H18.75C18.9489 6 19.1397 6.07902 19.2803 6.21967C19.421 6.36032 19.5 6.55109 19.5 6.75C19.5 6.94891 19.421 7.13968 19.2803 7.28033C19.1397 7.42098 18.9489 7.5 18.75 7.5H15.962C15.999 8 16.023 8.5 16.035 9H17.75C17.9489 9 18.1397 9.07902 18.2803 9.21967C18.421 9.36032 18.5 9.55109 18.5 9.75C18.5 9.94891 18.421 10.1397 18.2803 10.2803C18.1397 10.421 17.9489 10.5 17.75 10.5H16.035C16.023 11 15.999 11.5 15.962 12H18.75C18.9489 12 19.1397 12.079 19.2803 12.2197C19.421 12.3603 19.5 12.5511 19.5 12.75C19.5 12.9489 19.421 13.1397 19.2803 13.2803C19.1397 13.421 18.9489 13.5 18.75 13.5H15.808C15.6984 14.073 15.4202 14.6003 15.009 15.0142C14.5978 15.428 14.0723 15.7097 13.5 15.823V18.75C13.5 18.9489 13.421 19.1397 13.2803 19.2803C13.1397 19.421 12.9489 19.5 12.75 19.5C12.5511 19.5 12.3603 19.421 12.2197 19.2803C12.079 19.1397 12 18.9489 12 18.75V15.976C11.502 16.011 11.001 16.035 10.5 16.046V17.75C10.5 17.9489 10.421 18.1397 10.2803 18.2803C10.1397 18.421 9.94891 18.5 9.75 18.5C9.55109 18.5 9.36032 18.421 9.21967 18.2803C9.07902 18.1397 9 17.9489 9 17.75V16.046C8.49952 16.0344 7.99938 16.0111 7.5 15.976V18.75C7.5 18.9489 7.42098 19.1397 7.28033 19.2803C7.13968 19.421 6.94891 19.5 6.75 19.5C6.55109 19.5 6.36032 19.421 6.21967 19.2803C6.07902 19.1397 6 18.9489 6 18.75V15.823C5.42768 15.7097 4.90225 15.428 4.49104 15.0142C4.07984 14.6003 3.8016 14.073 3.692 13.5H0.75C0.551088 13.5 0.360322 13.421 0.21967 13.2803C0.0790175 13.1397 0 12.9489 0 12.75C0 12.5511 0.0790175 12.3603 0.21967 12.2197C0.360322 12.079 0.551088 12 0.75 12H3.538C3.501 11.5 3.477 11 3.464 10.5H1.75C1.55109 10.5 1.36032 10.421 1.21967 10.2803C1.07902 10.1397 1 9.94891 1 9.75C1 9.55109 1.07902 9.36032 1.21967 9.21967C1.36032 9.07902 1.55109 9 1.75 9H3.464C3.477 8.5 3.501 8 3.538 7.5H0.75C0.551088 7.5 0.360322 7.42098 0.21967 7.28033C0.0790175 7.13968 0 6.94891 0 6.75C0 6.55109 0.0790175 6.36032 0.21967 6.21967C0.360322 6.07902 0.551088 6 0.75 6H3.692C3.8016 5.42696 4.07984 4.89971 4.49104 4.48583C4.90225 4.07195 5.42768 3.79031 6 3.677V0.75C6 0.551088 6.07902 0.360322 6.21967 0.21967C6.36032 0.0790175 6.55109 0 6.75 0C6.94891 0 7.13968 0.0790175 7.28033 0.21967C7.42098 0.360322 7.5 0.551088 7.5 0.75V3.524C7.998 3.489 8.499 3.465 9 3.454V1.75C9 1.55109 9.07902 1.36032 9.21967 1.21967C9.36032 1.07902 9.55109 1 9.75 1C9.94891 1 10.1397 1.07902 10.2803 1.21967C10.421 1.36032 10.5 1.55109 10.5 1.75V3.454C11.001 3.465 11.502 3.489 12 3.524V0.75C12 0.551088 12.079 0.360322 12.2197 0.21967C12.3603 0.0790175 12.5511 0 12.75 0ZM11.558 6.197C10.3563 6.06377 9.14365 6.06377 7.942 6.197C7.044 6.297 6.316 7.005 6.21 7.914C6.06736 9.13384 6.06736 10.3662 6.21 11.586C6.316 12.496 7.044 13.202 7.942 13.303C9.134 13.436 10.366 13.436 11.558 13.303C11.998 13.2541 12.4086 13.0578 12.723 12.7461C13.0374 12.4344 13.2372 12.0256 13.29 11.586C13.433 10.366 13.433 9.134 13.29 7.914C13.2372 7.47442 13.0374 7.06559 12.723 6.75389C12.4086 6.4422 11.998 6.24594 11.558 6.197Z" fill="white"/>
</svg>
