<svg width="22" height="18" viewBox="0 0 22 18" fill="none" xmlns="http://www.w3.org/2000/svg">
<path d="M1 9C1 5.229 1 3.343 2.172 2.172C3.343 1 5.229 1 9 1H10.5C14.271 1 16.157 1 17.328 2.172C18.5 3.343 18.5 5.229 18.5 9C18.5 12.771 18.5 14.657 17.328 15.828C16.157 17 14.271 17 10.5 17H9C5.229 17 3.343 17 2.172 15.828C1 14.657 1 12.771 1 9ZM19 7C19.943 7 20.414 7 20.707 7.293C21 7.586 21 8.057 21 9C21 9.943 21 10.414 20.707 10.707C20.414 11 19.943 11 19 11V7Z" stroke="white" stroke-width="1.5"/>
<path d="M10.5 6L8 9H11.5L9 12" stroke="white" stroke-width="1.5" stroke-linecap="round" stroke-linejoin="round"/>
</svg>
