<svg width="15" height="15" viewBox="0 0 15 15" fill="none" xmlns="http://www.w3.org/2000/svg">
<path d="M3 1C2.26258 0.998921 1.5506 1.26947 1 1.76V6.24C1.5506 6.73053 2.26258 7.00109 3 7C3.16632 7.01524 3.33368 7.01524 3.5 7V12.79C3.5 13.1215 3.6317 13.4395 3.86612 13.6739C4.10054 13.9083 4.41848 14.04 4.75 14.04C5.08152 14.04 5.39946 13.9083 5.63388 13.6739C5.8683 13.4395 6 13.1215 6 12.79V4C6 3.20435 5.68393 2.44129 5.12132 1.87868C4.55871 1.31607 3.79565 1 3 1ZM12 1C12.7374 0.998921 13.4494 1.26947 14 1.76V6.24C13.4494 6.73053 12.7374 7.00109 12 7C11.8337 7.01524 11.6663 7.01524 11.5 7V12.79C11.5 13.1215 11.3683 13.4395 11.1339 13.6739C10.8995 13.9083 10.5815 14.04 10.25 14.04C9.91848 14.04 9.60054 13.9083 9.36612 13.6739C9.1317 13.4395 9 13.1215 9 12.79V4C9 3.20435 9.31607 2.44129 9.87868 1.87868C10.4413 1.31607 11.2044 1 12 1Z" stroke="white" stroke-linecap="round" stroke-linejoin="round"/>
</svg>
