<svg width="20" height="20" viewBox="0 0 20 20" fill="none" xmlns="http://www.w3.org/2000/svg">
<path d="M9.20001 6.375L12.7 0.375C14.2167 0.775 15.5627 1.50833 16.738 2.575C17.9133 3.64167 18.7673 4.90833 19.3 6.375H9.20001ZM6.42501 8.875L3.00001 2.875C3.90001 1.99167 4.94601 1.29167 6.13801 0.775C7.33001 0.258333 8.61734 0 10 0C10.2167 0 10.4667 0.0126668 10.75 0.0380001C11.0333 0.0633334 11.2917 0.0923333 11.525 0.125L6.42501 8.875ZM0.325011 12.5C0.225011 12.1 0.145678 11.6917 0.0870111 11.275C0.0283445 10.8583 -0.000655431 10.4333 1.1236e-05 10C1.1236e-05 8.81667 0.191678 7.7 0.575011 6.65C0.958345 5.6 1.50001 4.64167 2.20001 3.775L7.25001 12.5H0.325011ZM7.32501 19.625C5.80834 19.225 4.45834 18.4917 3.27501 17.425C2.09168 16.3583 1.23334 15.0917 0.700011 13.625H10.775L7.32501 19.625ZM10 20C9.75001 20 9.49568 19.9833 9.23701 19.95C8.97835 19.9167 8.73268 19.8833 8.50001 19.85L13.575 11.125L17 17.125C16.1 18.0083 15.054 18.7083 13.862 19.225C12.67 19.7417 11.3827 20 10 20ZM17.8 16.225L12.75 7.5H19.675C19.775 7.9 19.8543 8.30833 19.913 8.725C19.9717 9.14167 20.0007 9.56667 20 10C20 11.1667 19.7957 12.2833 19.387 13.35C18.9783 14.4167 18.4493 15.375 17.8 16.225Z" fill="white"/>
</svg>
